<svg width="140" height="52" viewBox="0 0 140 52" fill="none" xmlns="http://www.w3.org/2000/svg">
<path d="M139.916 35H138.917V28.3774L136.913 29.1133V28.2109L139.76 27.1421H139.916V35Z" fill="#230B59"/>
<path d="M0.990234 46V37.4688H3.7793C4.70508 37.4688 5.40039 37.6602 5.86523 38.043C6.33398 38.4258 6.56836 38.9922 6.56836 39.7422C6.56836 40.1406 6.45508 40.4941 6.22852 40.8027C6.00195 41.1074 5.69336 41.3438 5.30273 41.5117C5.76367 41.6406 6.12695 41.8867 6.39258 42.25C6.66211 42.6094 6.79688 43.0391 6.79688 43.5391C6.79688 44.3047 6.54883 44.9062 6.05273 45.3438C5.55664 45.7812 4.85547 46 3.94922 46H0.990234ZM2.11523 42.0098V45.0801H3.97266C4.49609 45.0801 4.9082 44.9453 5.20898 44.6758C5.51367 44.4023 5.66602 44.0273 5.66602 43.5508C5.66602 42.5234 5.10742 42.0098 3.99023 42.0098H2.11523ZM2.11523 41.1074H3.81445C4.30664 41.1074 4.69922 40.9844 4.99219 40.7383C5.28906 40.4922 5.4375 40.1582 5.4375 39.7363C5.4375 39.2676 5.30078 38.9277 5.02734 38.7168C4.75391 38.502 4.33789 38.3945 3.7793 38.3945H2.11523V41.1074ZM10.9277 46.1172C10.0684 46.1172 9.36914 45.8359 8.83008 45.2734C8.29102 44.707 8.02148 43.9512 8.02148 43.0059V42.8066C8.02148 42.1777 8.14062 41.6172 8.37891 41.125C8.62109 40.6289 8.95703 40.2422 9.38672 39.9648C9.82031 39.6836 10.2891 39.543 10.793 39.543C11.6172 39.543 12.2578 39.8145 12.7148 40.3574C13.1719 40.9004 13.4004 41.6777 13.4004 42.6895V43.1406H9.10547C9.12109 43.7656 9.30273 44.2715 9.65039 44.6582C10.002 45.041 10.4473 45.2324 10.9863 45.2324C11.3691 45.2324 11.6934 45.1543 11.959 44.998C12.2246 44.8418 12.457 44.6348 12.6562 44.377L13.3184 44.8926C12.7871 45.709 11.9902 46.1172 10.9277 46.1172ZM10.793 40.4336C10.3555 40.4336 9.98828 40.5938 9.69141 40.9141C9.39453 41.2305 9.21094 41.6758 9.14062 42.25H12.3164V42.168C12.2852 41.6172 12.1367 41.1914 11.8711 40.8906C11.6055 40.5859 11.2461 40.4336 10.793 40.4336ZM18.3516 44.3184C18.3516 44.0254 18.2402 43.7988 18.0176 43.6387C17.7988 43.4746 17.4141 43.334 16.8633 43.2168C16.3164 43.0996 15.8809 42.959 15.5566 42.7949C15.2363 42.6309 14.998 42.4355 14.8418 42.209C14.6895 41.9824 14.6133 41.7129 14.6133 41.4004C14.6133 40.8809 14.832 40.4414 15.2695 40.082C15.7109 39.7227 16.2734 39.543 16.957 39.543C17.6758 39.543 18.2578 39.7285 18.7031 40.0996C19.1523 40.4707 19.377 40.9453 19.377 41.5234H18.2871C18.2871 41.2266 18.1602 40.9707 17.9062 40.7559C17.6562 40.541 17.3398 40.4336 16.957 40.4336C16.5625 40.4336 16.2539 40.5195 16.0312 40.6914C15.8086 40.8633 15.6973 41.0879 15.6973 41.3652C15.6973 41.627 15.8008 41.8242 16.0078 41.957C16.2148 42.0898 16.5879 42.2168 17.127 42.3379C17.6699 42.459 18.1094 42.6035 18.4453 42.7715C18.7812 42.9395 19.0293 43.1426 19.1895 43.3809C19.3535 43.6152 19.4355 43.9023 19.4355 44.2422C19.4355 44.8086 19.209 45.2637 18.7559 45.6074C18.3027 45.9473 17.7148 46.1172 16.9922 46.1172C16.4844 46.1172 16.0352 46.0273 15.6445 45.8477C15.2539 45.668 14.9473 45.418 14.7246 45.0977C14.5059 44.7734 14.3965 44.4238 14.3965 44.0488H15.4805C15.5 44.4121 15.6445 44.7012 15.9141 44.916C16.1875 45.127 16.5469 45.2324 16.9922 45.2324C17.4023 45.2324 17.7305 45.1504 17.9766 44.9863C18.2266 44.8184 18.3516 44.5957 18.3516 44.3184ZM22.3184 38.125V39.6602H23.502V40.498H22.3184V44.4297C22.3184 44.6836 22.3711 44.875 22.4766 45.0039C22.582 45.1289 22.7617 45.1914 23.0156 45.1914C23.1406 45.1914 23.3125 45.168 23.5312 45.1211V46C23.2461 46.0781 22.9688 46.1172 22.6992 46.1172C22.2148 46.1172 21.8496 45.9707 21.6035 45.6777C21.3574 45.3848 21.2344 44.9688 21.2344 44.4297V40.498H20.0801V39.6602H21.2344V38.125H22.3184ZM31.0488 42.5488H29.0449V46H27.9141V37.4688H30.7383C31.6992 37.4688 32.4375 37.6875 32.9531 38.125C33.4727 38.5625 33.7324 39.1992 33.7324 40.0352C33.7324 40.5664 33.5879 41.0293 33.2988 41.4238C33.0137 41.8184 32.6152 42.1133 32.1035 42.3086L34.1074 45.9297V46H32.9004L31.0488 42.5488ZM29.0449 41.6289H30.7734C31.332 41.6289 31.7754 41.4844 32.1035 41.1953C32.4355 40.9062 32.6016 40.5195 32.6016 40.0352C32.6016 39.5078 32.4434 39.1035 32.127 38.8223C31.8145 38.541 31.3613 38.3984 30.7676 38.3945H29.0449V41.6289ZM34.8574 42.7715C34.8574 42.1504 34.9785 41.5918 35.2207 41.0957C35.4668 40.5996 35.8066 40.2168 36.2402 39.9473C36.6777 39.6777 37.1758 39.543 37.7344 39.543C38.5977 39.543 39.2949 39.8418 39.8262 40.4395C40.3613 41.0371 40.6289 41.832 40.6289 42.8242V42.9004C40.6289 43.5176 40.5098 44.0723 40.2715 44.5645C40.0371 45.0527 39.6992 45.4336 39.2578 45.707C38.8203 45.9805 38.3164 46.1172 37.7461 46.1172C36.8867 46.1172 36.1895 45.8184 35.6543 45.2207C35.123 44.623 34.8574 43.832 34.8574 42.8477V42.7715ZM35.9473 42.9004C35.9473 43.6035 36.1094 44.168 36.4336 44.5938C36.7617 45.0195 37.1992 45.2324 37.7461 45.2324C38.2969 45.2324 38.7344 45.0176 39.0586 44.5879C39.3828 44.1543 39.5449 43.5488 39.5449 42.7715C39.5449 42.0762 39.3789 41.5137 39.0469 41.084C38.7188 40.6504 38.2812 40.4336 37.7344 40.4336C37.1992 40.4336 36.7676 40.6465 36.4395 41.0723C36.1113 41.498 35.9473 42.1074 35.9473 42.9004ZM47.3555 42.9004C47.3555 43.8691 47.1328 44.6484 46.6875 45.2383C46.2422 45.8242 45.6445 46.1172 44.8945 46.1172C44.0938 46.1172 43.4746 45.834 43.0371 45.2676L42.9844 46H41.9883V37H43.0723V40.3574C43.5098 39.8145 44.1133 39.543 44.8828 39.543C45.6523 39.543 46.2559 39.834 46.6934 40.416C47.1348 40.998 47.3555 41.7949 47.3555 42.8066V42.9004ZM46.2715 42.7773C46.2715 42.0391 46.1289 41.4688 45.8438 41.0664C45.5586 40.6641 45.1484 40.4629 44.6133 40.4629C43.8984 40.4629 43.3848 40.7949 43.0723 41.459V44.2012C43.4043 44.8652 43.9219 45.1973 44.625 45.1973C45.1445 45.1973 45.5488 44.9961 45.8379 44.5938C46.127 44.1914 46.2715 43.5859 46.2715 42.7773ZM48.4395 42.7715C48.4395 42.1504 48.5605 41.5918 48.8027 41.0957C49.0488 40.5996 49.3887 40.2168 49.8223 39.9473C50.2598 39.6777 50.7578 39.543 51.3164 39.543C52.1797 39.543 52.877 39.8418 53.4082 40.4395C53.9434 41.0371 54.2109 41.832 54.2109 42.8242V42.9004C54.2109 43.5176 54.0918 44.0723 53.8535 44.5645C53.6191 45.0527 53.2812 45.4336 52.8398 45.707C52.4023 45.9805 51.8984 46.1172 51.3281 46.1172C50.4688 46.1172 49.7715 45.8184 49.2363 45.2207C48.7051 44.623 48.4395 43.832 48.4395 42.8477V42.7715ZM49.5293 42.9004C49.5293 43.6035 49.6914 44.168 50.0156 44.5938C50.3438 45.0195 50.7812 45.2324 51.3281 45.2324C51.8789 45.2324 52.3164 45.0176 52.6406 44.5879C52.9648 44.1543 53.127 43.5488 53.127 42.7715C53.127 42.0762 52.9609 41.5137 52.6289 41.084C52.3008 40.6504 51.8633 40.4336 51.3164 40.4336C50.7812 40.4336 50.3496 40.6465 50.0215 41.0723C49.6934 41.498 49.5293 42.1074 49.5293 42.9004ZM57.8262 42.8184H54.9668V41.9336H57.8262V42.8184ZM62.8008 46C62.7383 45.875 62.6875 45.6523 62.6484 45.332C62.1445 45.8555 61.543 46.1172 60.8438 46.1172C60.2188 46.1172 59.7051 45.9414 59.3027 45.5898C58.9043 45.2344 58.7051 44.7852 58.7051 44.2422C58.7051 43.582 58.9551 43.0703 59.4551 42.707C59.959 42.3398 60.666 42.1562 61.5762 42.1562H62.6309V41.6582C62.6309 41.2793 62.5176 40.9785 62.291 40.7559C62.0645 40.5293 61.7305 40.416 61.2891 40.416C60.9023 40.416 60.5781 40.5137 60.3164 40.709C60.0547 40.9043 59.9238 41.1406 59.9238 41.418H58.834C58.834 41.1016 58.9453 40.7969 59.168 40.5039C59.3945 40.207 59.6992 39.9727 60.082 39.8008C60.4688 39.6289 60.8926 39.543 61.3535 39.543C62.084 39.543 62.6562 39.7266 63.0703 40.0938C63.4844 40.457 63.6992 40.959 63.7148 41.5996V44.5176C63.7148 45.0996 63.7891 45.5625 63.9375 45.9062V46H62.8008ZM61.002 45.1738C61.3418 45.1738 61.6641 45.0859 61.9688 44.9102C62.2734 44.7344 62.4941 44.5059 62.6309 44.2246V42.9238H61.7812C60.4531 42.9238 59.7891 43.3125 59.7891 44.0898C59.7891 44.4297 59.9023 44.6953 60.1289 44.8867C60.3555 45.0781 60.6465 45.1738 61.002 45.1738ZM65.1504 42.7773C65.1504 41.8047 65.3809 41.0234 65.8418 40.4336C66.3027 39.8398 66.9062 39.543 67.6523 39.543C68.3945 39.543 68.9824 39.7969 69.416 40.3047V37H70.5V46H69.5039L69.4512 45.3203C69.0176 45.8516 68.4141 46.1172 67.6406 46.1172C66.9062 46.1172 66.3066 45.8164 65.8418 45.2148C65.3809 44.6133 65.1504 43.8281 65.1504 42.8594V42.7773ZM66.2344 42.9004C66.2344 43.6191 66.3828 44.1816 66.6797 44.5879C66.9766 44.9941 67.3867 45.1973 67.9102 45.1973C68.5977 45.1973 69.0996 44.8887 69.416 44.2715V41.3594C69.0918 40.7617 68.5938 40.4629 67.9219 40.4629C67.3906 40.4629 66.9766 40.668 66.6797 41.0781C66.3828 41.4883 66.2344 42.0957 66.2344 42.9004ZM74.2793 44.5293L75.8496 39.6602H76.957L74.6836 46H73.8574L71.5605 39.6602H72.668L74.2793 44.5293ZM79.1777 46H78.0938V39.6602H79.1777V46ZM78.0059 37.9785C78.0059 37.8027 78.0586 37.6543 78.1641 37.5332C78.2734 37.4121 78.4336 37.3516 78.6445 37.3516C78.8555 37.3516 79.0156 37.4121 79.125 37.5332C79.2344 37.6543 79.2891 37.8027 79.2891 37.9785C79.2891 38.1543 79.2344 38.3008 79.125 38.418C79.0156 38.5352 78.8555 38.5938 78.6445 38.5938C78.4336 38.5938 78.2734 38.5352 78.1641 38.418C78.0586 38.3008 78.0059 38.1543 78.0059 37.9785ZM84.6094 44.3184C84.6094 44.0254 84.498 43.7988 84.2754 43.6387C84.0566 43.4746 83.6719 43.334 83.1211 43.2168C82.5742 43.0996 82.1387 42.959 81.8145 42.7949C81.4941 42.6309 81.2559 42.4355 81.0996 42.209C80.9473 41.9824 80.8711 41.7129 80.8711 41.4004C80.8711 40.8809 81.0898 40.4414 81.5273 40.082C81.9688 39.7227 82.5312 39.543 83.2148 39.543C83.9336 39.543 84.5156 39.7285 84.9609 40.0996C85.4102 40.4707 85.6348 40.9453 85.6348 41.5234H84.5449C84.5449 41.2266 84.418 40.9707 84.1641 40.7559C83.9141 40.541 83.5977 40.4336 83.2148 40.4336C82.8203 40.4336 82.5117 40.5195 82.2891 40.6914C82.0664 40.8633 81.9551 41.0879 81.9551 41.3652C81.9551 41.627 82.0586 41.8242 82.2656 41.957C82.4727 42.0898 82.8457 42.2168 83.3848 42.3379C83.9277 42.459 84.3672 42.6035 84.7031 42.7715C85.0391 42.9395 85.2871 43.1426 85.4473 43.3809C85.6113 43.6152 85.6934 43.9023 85.6934 44.2422C85.6934 44.8086 85.4668 45.2637 85.0137 45.6074C84.5605 45.9473 83.9727 46.1172 83.25 46.1172C82.7422 46.1172 82.293 46.0273 81.9023 45.8477C81.5117 45.668 81.2051 45.418 80.9824 45.0977C80.7637 44.7734 80.6543 44.4238 80.6543 44.0488H81.7383C81.7578 44.4121 81.9023 44.7012 82.1719 44.916C82.4453 45.127 82.8047 45.2324 83.25 45.2324C83.6602 45.2324 83.9883 45.1504 84.2344 44.9863C84.4844 44.8184 84.6094 44.5957 84.6094 44.3184ZM86.8184 42.7715C86.8184 42.1504 86.9395 41.5918 87.1816 41.0957C87.4277 40.5996 87.7676 40.2168 88.2012 39.9473C88.6387 39.6777 89.1367 39.543 89.6953 39.543C90.5586 39.543 91.2559 39.8418 91.7871 40.4395C92.3223 41.0371 92.5898 41.832 92.5898 42.8242V42.9004C92.5898 43.5176 92.4707 44.0723 92.2324 44.5645C91.998 45.0527 91.6602 45.4336 91.2188 45.707C90.7812 45.9805 90.2773 46.1172 89.707 46.1172C88.8477 46.1172 88.1504 45.8184 87.6152 45.2207C87.084 44.623 86.8184 43.832 86.8184 42.8477V42.7715ZM87.9082 42.9004C87.9082 43.6035 88.0703 44.168 88.3945 44.5938C88.7227 45.0195 89.1602 45.2324 89.707 45.2324C90.2578 45.2324 90.6953 45.0176 91.0195 44.5879C91.3438 44.1543 91.5059 43.5488 91.5059 42.7715C91.5059 42.0762 91.3398 41.5137 91.0078 41.084C90.6797 40.6504 90.2422 40.4336 89.6953 40.4336C89.1602 40.4336 88.7285 40.6465 88.4004 41.0723C88.0723 41.498 87.9082 42.1074 87.9082 42.9004ZM97.0137 40.6328C96.8496 40.6055 96.6719 40.5918 96.4805 40.5918C95.7695 40.5918 95.2871 40.8945 95.0332 41.5V46H93.9492V39.6602H95.0039L95.0215 40.3926C95.377 39.8262 95.8809 39.543 96.5332 39.543C96.7441 39.543 96.9043 39.5703 97.0137 39.625V40.6328ZM97.2539 47.6992L96.6387 47.2773C97.0059 46.7656 97.1973 46.2383 97.2129 45.6953V44.7168H98.2734V45.5664C98.2734 45.9609 98.1758 46.3555 97.9805 46.75C97.7891 47.1445 97.5469 47.4609 97.2539 47.6992ZM108.1 46H102.51V45.2207L105.463 41.9395C105.9 41.4434 106.201 41.041 106.365 40.7324C106.533 40.4199 106.617 40.0977 106.617 39.7656C106.617 39.3203 106.482 38.9551 106.213 38.6699C105.943 38.3848 105.584 38.2422 105.135 38.2422C104.596 38.2422 104.176 38.3965 103.875 38.7051C103.578 39.0098 103.43 39.4355 103.43 39.9824H102.346C102.346 39.1973 102.598 38.5625 103.102 38.0781C103.609 37.5938 104.287 37.3516 105.135 37.3516C105.928 37.3516 106.555 37.5605 107.016 37.9785C107.477 38.3926 107.707 38.9453 107.707 39.6367C107.707 40.4766 107.172 41.4766 106.102 42.6367L103.816 45.1152H108.1V46ZM114.598 42.3613C114.598 43.6309 114.381 44.5742 113.947 45.1914C113.514 45.8086 112.836 46.1172 111.914 46.1172C111.004 46.1172 110.33 45.8164 109.893 45.2148C109.455 44.6094 109.229 43.707 109.213 42.5078V41.0605C109.213 39.8066 109.43 38.875 109.863 38.2656C110.297 37.6562 110.977 37.3516 111.902 37.3516C112.82 37.3516 113.496 37.6465 113.93 38.2363C114.363 38.8223 114.586 39.7285 114.598 40.9551V42.3613ZM113.514 40.8789C113.514 39.9609 113.385 39.293 113.127 38.875C112.869 38.4531 112.461 38.2422 111.902 38.2422C111.348 38.2422 110.943 38.4512 110.689 38.8691C110.436 39.2871 110.305 39.9297 110.297 40.7969V42.5312C110.297 43.4531 110.43 44.1348 110.695 44.5762C110.965 45.0137 111.371 45.2324 111.914 45.2324C112.449 45.2324 112.846 45.0254 113.104 44.6113C113.365 44.1973 113.502 43.5449 113.514 42.6543V40.8789ZM121.576 46H115.986V45.2207L118.939 41.9395C119.377 41.4434 119.678 41.041 119.842 40.7324C120.01 40.4199 120.094 40.0977 120.094 39.7656C120.094 39.3203 119.959 38.9551 119.689 38.6699C119.42 38.3848 119.061 38.2422 118.611 38.2422C118.072 38.2422 117.652 38.3965 117.352 38.7051C117.055 39.0098 116.906 39.4355 116.906 39.9824H115.822C115.822 39.1973 116.074 38.5625 116.578 38.0781C117.086 37.5938 117.764 37.3516 118.611 37.3516C119.404 37.3516 120.031 37.5605 120.492 37.9785C120.953 38.3926 121.184 38.9453 121.184 39.6367C121.184 40.4766 120.648 41.4766 119.578 42.6367L117.293 45.1152H121.576V46ZM128.074 42.3613C128.074 43.6309 127.857 44.5742 127.424 45.1914C126.99 45.8086 126.312 46.1172 125.391 46.1172C124.48 46.1172 123.807 45.8164 123.369 45.2148C122.932 44.6094 122.705 43.707 122.689 42.5078V41.0605C122.689 39.8066 122.906 38.875 123.34 38.2656C123.773 37.6562 124.453 37.3516 125.379 37.3516C126.297 37.3516 126.973 37.6465 127.406 38.2363C127.84 38.8223 128.062 39.7285 128.074 40.9551V42.3613ZM126.99 40.8789C126.99 39.9609 126.861 39.293 126.604 38.875C126.346 38.4531 125.938 38.2422 125.379 38.2422C124.824 38.2422 124.42 38.4512 124.166 38.8691C123.912 39.2871 123.781 39.9297 123.773 40.7969V42.5312C123.773 43.4531 123.906 44.1348 124.172 44.5762C124.441 45.0137 124.848 45.2324 125.391 45.2324C125.926 45.2324 126.322 45.0254 126.58 44.6113C126.842 44.1973 126.979 43.5449 126.99 42.6543V40.8789Z" fill="#230B59"/>
<path d="M9.48953 5.98213L10.9543 6.9077L10.3944 12.2L18.2762 7.39359C18.0983 5.97454 17.5581 4.62518 16.7076 3.4754C15.8571 2.32562 14.7249 1.41415 13.4201 0.828709C12.1152 0.243271 10.6817 0.00358862 9.25735 0.132734C7.83304 0.261879 6.46595 0.755503 5.28769 1.56609C3.87039 2.5413 2.78978 3.93139 2.19427 5.54543C1.59875 7.15947 1.51755 8.91829 1.96181 10.5803L9.48953 5.98213Z" fill="#230B59"/>
<path d="M9.73023 14.8706L8.26548 13.9448L8.8254 8.65491L2.66058 12.4176C3.48416 13.9803 4.78313 15.2408 6.36989 16.017C7.95666 16.7932 9.74907 17.0449 11.4883 16.7359C13.2275 16.4268 14.8234 15.5729 16.0456 14.2976C17.2678 13.0222 18.053 11.3914 18.2877 9.64059L9.73023 14.8706Z" fill="#230B59"/>
<path d="M10.4637 5.2206C10.776 5.2206 11.0756 5.09651 11.2965 4.87562C11.5174 4.65474 11.6415 4.35515 11.6415 4.04277C11.6415 3.73038 11.5174 3.4308 11.2965 3.20991C11.0756 2.98902 10.776 2.86493 10.4637 2.86493C10.1513 2.86493 9.8517 2.98902 9.63081 3.20991C9.40992 3.4308 9.28583 3.73038 9.28583 4.04277C9.28583 4.35515 9.40992 4.65474 9.63081 4.87562C9.8517 5.09651 10.1513 5.2206 10.4637 5.2206Z" fill="white"/>
<path d="M22.5179 16.2104L24.5864 16.1803V1.5598L22.5179 1.58999V16.2104ZM32.4129 6.0517C31.4873 6.0517 29.9115 6.4633 29.2125 7.58102V6.2596H27.2594V16.2104H29.2125V10.8255C29.2125 8.86307 30.6935 7.9837 32.1609 7.9837C33.5492 7.9837 34.4748 9.02503 34.4748 10.5733V16.2104H36.4257V10.469C36.4257 9.05522 36.0369 7.89812 35.2686 7.12532C34.5743 6.42182 33.5862 6.0517 32.4129 6.0517ZM42.2989 13.6511L39.3114 6.26196H37.2216L41.3547 16.2104H43.2244L47.3782 6.26196H45.2677L42.2989 13.6511ZM78.7483 6.0517C75.7401 6.0517 73.5532 8.21732 73.5532 11.2051C73.5532 14.1923 75.7886 16.421 78.7483 16.421C79.7876 16.4474 80.81 16.155 81.6782 15.5831C82.5463 15.0111 83.2185 14.187 83.6043 13.2216C83.8605 12.581 83.9838 11.8949 83.9665 11.2051C83.9665 8.21759 81.782 6.05143 78.7483 6.05143V6.0517ZM78.7483 14.5743C76.9226 14.5743 75.534 13.1258 75.534 11.2051C75.534 9.31904 76.9226 7.89812 78.7551 7.89812C79.1888 7.89199 79.6193 7.9737 80.0206 8.13835C80.4219 8.30299 80.7857 8.54715 81.0902 8.85612C81.3946 9.1651 81.6334 9.5325 81.7921 9.93619C81.9507 10.3399 82.0261 10.7715 82.0135 11.2051C82.0135 13.1258 80.6089 14.5743 78.7483 14.5743ZM90.7099 6.05143C89.2682 6.05143 87.9492 6.67881 87.2782 7.67132V6.2596H85.325V20.9869H87.2782V14.8218C87.9445 15.824 89.215 16.4141 90.7306 16.4141C93.6071 16.4141 95.6945 14.2388 95.6945 11.2397C95.6945 8.24068 93.5979 6.05143 90.7099 6.05143ZM90.5411 14.5743C90.1086 14.5756 89.6801 14.4906 89.2808 14.3243C88.8815 14.158 88.5193 13.9138 88.2155 13.6059C87.9117 13.298 87.6723 12.9326 87.5114 12.5311C87.3504 12.1296 87.2712 11.7001 87.2782 11.2676C87.2782 9.34686 88.6805 7.89812 90.5411 7.89812C92.3251 7.89812 93.7205 9.37915 93.7205 11.2676C93.7205 13.1557 92.3529 14.5743 90.5411 14.5743ZM116.066 7.64822C115.399 6.64626 114.129 6.05616 112.613 6.05616C109.736 6.05616 107.649 8.2315 107.649 11.2303C107.649 14.2296 109.746 16.4257 112.634 16.4257C114.076 16.4257 115.395 15.7983 116.066 14.8058V16.2102H118.019V0.895935H116.066V7.64848V7.64822ZM112.791 14.574C111.018 14.574 109.632 13.093 109.632 11.2048C109.632 9.31641 110.981 7.89786 112.791 7.89786C113.225 7.89503 113.655 7.9788 114.056 8.14428C114.458 8.30976 114.822 8.55362 115.128 8.86158C115.433 9.16954 115.675 9.53541 115.837 9.93777C116 10.3401 116.081 10.7709 116.075 11.2048C116.066 12.8384 114.916 14.574 112.791 14.574ZM120.49 6.2617H122.443V16.2102H120.49V6.26196V6.2617ZM134.389 6.25933H132.436V7.41643C131.741 6.55097 130.545 6.04645 129.147 6.04645H128.99C126.114 6.04645 124.026 8.22178 124.026 11.2208C124.026 14.2199 126.123 16.416 129.011 16.416H129.175C130.506 16.416 131.734 15.8792 132.442 15.0276V16.2102H134.544V6.25986H134.389V6.25933ZM129.235 14.5672C127.502 14.5207 126.157 13.0631 126.157 11.2025C126.157 9.34187 127.476 7.94196 129.235 7.90022C131.029 7.93172 132.46 9.40802 132.436 11.2025C132.436 12.8153 131.304 14.5231 129.235 14.5696V14.5669V14.5672ZM62.4176 10.1288C61.397 9.8674 60.6752 9.63377 60.6752 8.99747C60.6752 8.28216 61.397 7.78236 62.4339 7.78236C63.1858 7.79749 63.9119 8.05934 64.5003 8.5276L64.5489 8.56435L65.5973 7.11141L65.5508 7.0744C64.6269 6.35483 63.4821 5.97782 62.3113 6.0076C60.5502 6.0076 58.655 6.97701 58.655 9.10142C58.655 10.5824 59.8906 11.3046 60.9251 11.6469C61.2721 11.7626 61.6194 11.8529 61.9711 11.9409C63.0518 12.2186 63.9866 12.4593 63.9866 13.3017C63.9866 13.8915 63.3918 14.5165 62.2903 14.5165C61.2467 14.4876 60.2416 14.1159 59.4301 13.4589L59.3792 13.4219L58.3331 14.9168L58.3772 14.9515C59.5011 15.8433 60.8999 16.317 62.3344 16.2913C64.1163 16.2913 66.0115 15.2292 66.0115 13.2599C66.0115 11.2907 64.1948 10.5848 62.4176 10.1288ZM106.379 11.066C106.379 8.0971 104.46 6.02833 101.683 6.02833C98.8765 6.02833 96.8401 8.15038 96.8401 11.071C96.8211 11.7706 96.9425 12.4669 97.1973 13.1187C97.4521 13.7705 97.835 14.3647 98.3235 14.8659C99.1977 15.7173 100.373 16.1888 101.593 16.1779H101.686C103.405 16.148 104.527 15.8632 105.891 14.3916L105.932 14.3475L104.578 13.0586L104.537 13.1048C104.194 13.5067 103.767 13.8277 103.286 14.0446C102.804 14.2614 102.281 14.3688 101.753 14.359C100.244 14.359 99.0545 13.2529 98.7747 11.5983L106.312 11.5823H106.367V11.5267C106.375 11.4365 106.375 11.3459 106.367 11.2558C106.381 11.219 106.379 11.1681 106.379 11.0662V11.066ZM99.0731 10.0619C99.3299 8.62472 100.272 7.83328 101.732 7.83328C103.146 7.83328 104.109 8.6641 104.322 10.0619H99.0731ZM57.2527 11.0662C57.2527 8.09736 55.3202 6.02833 52.5618 6.02833C49.7549 6.02833 47.7184 8.15038 47.7184 11.071C47.6997 11.7706 47.8214 12.4668 48.0762 13.1187C48.3309 13.7705 48.7137 14.3647 49.2018 14.8662C50.0762 15.7173 51.2513 16.1888 52.4715 16.1779H52.5618C54.2836 16.148 55.406 15.8632 56.7689 14.3916L56.8106 14.3475L55.4569 13.0586L55.4152 13.1048C55.0721 13.5078 54.6437 13.8293 54.161 14.0463C53.6783 14.2632 53.1534 14.37 52.6243 14.359C51.1133 14.359 49.9261 13.2529 49.6462 11.5983L57.1808 11.5823H57.2388V11.5267C57.2448 11.4365 57.2448 11.346 57.2388 11.2558C57.2527 11.219 57.2527 11.1681 57.2527 11.0662ZM49.94 10.0616C50.1991 8.62446 51.1409 7.83302 52.6012 7.83302C54.015 7.83302 54.9779 8.66383 55.1908 10.0616H49.94ZM72.41 14.1435C72.1415 14.2154 71.8641 14.249 71.5862 14.2433C71.3635 14.2535 71.141 14.2177 70.9328 14.138C70.7245 14.0583 70.5349 13.9365 70.3759 13.7802C70.163 13.5303 70.1191 13.1463 70.1191 12.6488V7.9606H72.8959V6.2596H70.1191V3.03872H68.1635V6.2596H67.0899V7.9606H68.1635V12.5473C68.1635 13.6511 68.409 14.4632 68.9135 15.0279C69.2426 15.3914 69.6477 15.6781 70.1 15.8676C70.5522 16.0572 71.0406 16.145 71.5306 16.1249C72.0213 16.1295 72.5101 16.0625 72.9814 15.9259L73.0394 15.9073L72.4677 14.1275L72.41 14.1438V14.1435ZM121.467 1.49496C121.301 1.49465 121.136 1.52746 120.983 1.59146C120.83 1.65546 120.691 1.74936 120.575 1.86768C120.459 1.98599 120.367 2.12634 120.306 2.2805C120.244 2.43465 120.214 2.59953 120.217 2.76546C120.215 2.93022 120.245 3.09379 120.307 3.2465C120.369 3.3992 120.461 3.53795 120.577 3.65455C120.694 3.77106 120.833 3.863 120.986 3.92491C121.138 3.98682 121.302 4.01744 121.467 4.01496C121.633 4.01856 121.798 3.9889 121.953 3.92773C122.108 3.86656 122.249 3.77511 122.367 3.65875C122.486 3.54236 122.581 3.40336 122.645 3.24994C122.709 3.09653 122.742 2.9318 122.742 2.76546C122.742 2.59803 122.71 2.43213 122.646 2.27736C122.582 2.12259 122.488 1.98204 122.37 1.86386C122.251 1.74568 122.11 1.65222 121.955 1.58889C121.8 1.52557 121.634 1.49364 121.467 1.49496Z" fill="#230B59"/>
</svg>
