<svg width="78" height="32" viewBox="0 0 78 32" fill="none" xmlns="http://www.w3.org/2000/svg">
<path d="M10.4492 16.4224C10.4492 15.6737 10.1847 15.043 9.65576 14.5303C9.13493 14.0176 8.25195 13.5537 7.00684 13.1387C5.27344 12.6097 4.00798 11.922 3.21045 11.0757C2.42106 10.2212 2.02637 9.13883 2.02637 7.82861C2.02637 6.49398 2.41292 5.39941 3.18604 4.54492C3.96729 3.69043 5.03743 3.1818 6.39648 3.01904V0.345703H8.21533V3.03125C9.58252 3.21842 10.6445 3.79215 11.4014 4.75244C12.1663 5.71273 12.5488 7.02702 12.5488 8.69531H10.3027C10.3027 7.54785 10.0301 6.63639 9.48486 5.96094C8.93962 5.28548 8.20312 4.94775 7.27539 4.94775C6.30697 4.94775 5.56641 5.20003 5.05371 5.70459C4.54102 6.20101 4.28467 6.89681 4.28467 7.79199C4.28467 8.62207 4.55322 9.28532 5.09033 9.78174C5.63558 10.27 6.52669 10.7176 7.76367 11.1245C9.00879 11.5233 9.97721 11.9668 10.6689 12.4551C11.3688 12.9352 11.8815 13.4967 12.207 14.1396C12.5407 14.7826 12.7075 15.5353 12.7075 16.3979C12.7075 17.7733 12.2925 18.88 11.4624 19.7183C10.6405 20.5565 9.48486 21.0529 7.99561 21.2075V23.5391H6.18896V21.2075C4.67529 21.0692 3.48714 20.5321 2.62451 19.5962C1.77002 18.6522 1.34277 17.3745 1.34277 15.7632H3.60107C3.60107 16.8944 3.89811 17.7651 4.49219 18.3755C5.08626 18.9858 5.92855 19.291 7.01904 19.291C8.08512 19.291 8.92334 19.0347 9.53369 18.522C10.144 18.0093 10.4492 17.3094 10.4492 16.4224ZM28.1101 21H16.4646V19.3765L22.617 12.5405C23.5284 11.507 24.1551 10.6688 24.4969 10.0259C24.8468 9.37484 25.0218 8.70345 25.0218 8.01172C25.0218 7.08398 24.741 6.32308 24.1795 5.729C23.618 5.13493 22.8693 4.83789 21.9334 4.83789C20.8103 4.83789 19.9355 5.15934 19.3089 5.80225C18.6904 6.43701 18.3811 7.32406 18.3811 8.46338H16.1228C16.1228 6.82764 16.6477 5.50521 17.6975 4.49609C18.7555 3.48698 20.1674 2.98242 21.9334 2.98242C23.5854 2.98242 24.8916 3.41781 25.8518 4.28857C26.8121 5.1512 27.2923 6.30273 27.2923 7.74316C27.2923 9.49284 26.1774 11.5762 23.9475 13.9932L19.1868 19.1567H28.1101V21ZM40.3145 3.21436V5.13086H39.8995C38.1417 5.16341 36.7419 5.68424 35.7003 6.69336C34.6586 7.70247 34.0564 9.12256 33.8936 10.9536C34.8295 9.87939 36.1072 9.34229 37.7266 9.34229C39.2729 9.34229 40.5058 9.88753 41.4254 10.978C42.3531 12.0685 42.817 13.4764 42.817 15.2017C42.817 17.0327 42.3165 18.4976 41.3155 19.5962C40.3227 20.6948 38.988 21.2441 37.3116 21.2441C35.6108 21.2441 34.2314 20.5931 33.1734 19.291C32.1155 17.9808 31.5865 16.2962 31.5865 14.2373V13.3706C31.5865 10.0991 32.2823 7.60075 33.6739 5.87549C35.0736 4.14209 37.1529 3.25505 39.9117 3.21436H40.3145ZM37.3482 11.2222C36.5751 11.2222 35.863 11.4541 35.212 11.918C34.5609 12.3818 34.1093 12.9637 33.857 13.6636V14.4937C33.857 15.9585 34.1866 17.1385 34.8458 18.0337C35.505 18.9289 36.3269 19.3765 37.3116 19.3765C38.3289 19.3765 39.1264 19.0021 39.7042 18.2534C40.2901 17.5047 40.5831 16.5241 40.5831 15.3115C40.5831 14.0908 40.286 13.1061 39.692 12.3574C39.106 11.6006 38.3248 11.2222 37.3482 11.2222ZM47.0257 21V3.22656H52.8363C54.765 3.22656 56.2136 3.62533 57.182 4.42285C58.1586 5.22038 58.6468 6.40039 58.6468 7.96289C58.6468 8.79297 58.4108 9.52946 57.9388 10.1724C57.4668 10.8071 56.8239 11.2995 56.0101 11.6494C56.9704 11.918 57.7272 12.4307 58.2806 13.1875C58.8422 13.9362 59.1229 14.8314 59.1229 15.873C59.1229 17.4681 58.6061 18.7214 57.5726 19.6328C56.5391 20.5443 55.0783 21 53.1903 21H47.0257ZM49.3695 12.687V19.0835H53.2391C54.3296 19.0835 55.1882 18.8027 55.8148 18.2412C56.4496 17.6715 56.767 16.8903 56.767 15.8975C56.767 13.7572 55.6032 12.687 53.2757 12.687H49.3695ZM49.3695 10.8071H52.9095C53.9349 10.8071 54.7528 10.5508 55.3631 10.0381C55.9816 9.52539 56.2909 8.82959 56.2909 7.95068C56.2909 6.97412 56.0061 6.26611 55.4364 5.82666C54.8667 5.37907 54 5.15527 52.8363 5.15527H49.3695V10.8071ZM69.6671 11.4663H74.6232V13.6025H69.6671V19.2178H67.3966V13.6025H62.4406V11.4663H67.3966V6.27832H69.6671V11.4663Z" fill="#230B59"/>
</svg>
