<svg width="83" height="50" viewBox="0 0 83 50" fill="none" xmlns="http://www.w3.org/2000/svg">
<path d="M6.88477 36.3945H4.14258V44H3.02344V36.3945H0.287109V35.4688H6.88477V36.3945ZM10.5996 38.6328C10.4355 38.6055 10.2578 38.5918 10.0664 38.5918C9.35547 38.5918 8.87305 38.8945 8.61914 39.5V44H7.53516V37.6602H8.58984L8.60742 38.3926C8.96289 37.8262 9.4668 37.543 10.1191 37.543C10.3301 37.543 10.4902 37.5703 10.5996 37.625V38.6328ZM15.5156 43.373C15.0938 43.8691 14.4746 44.1172 13.6582 44.1172C12.9824 44.1172 12.4668 43.9219 12.1113 43.5312C11.7598 43.1367 11.582 42.5547 11.5781 41.7852V37.6602H12.6621V41.7559C12.6621 42.7168 13.0527 43.1973 13.834 43.1973C14.6621 43.1973 15.2129 42.8887 15.4863 42.2715V37.6602H16.5703V44H15.5391L15.5156 43.373ZM21.9141 42.3184C21.9141 42.0254 21.8027 41.7988 21.5801 41.6387C21.3613 41.4746 20.9766 41.334 20.4258 41.2168C19.8789 41.0996 19.4434 40.959 19.1191 40.7949C18.7988 40.6309 18.5605 40.4355 18.4043 40.209C18.252 39.9824 18.1758 39.7129 18.1758 39.4004C18.1758 38.8809 18.3945 38.4414 18.832 38.082C19.2734 37.7227 19.8359 37.543 20.5195 37.543C21.2383 37.543 21.8203 37.7285 22.2656 38.0996C22.7148 38.4707 22.9395 38.9453 22.9395 39.5234H21.8496C21.8496 39.2266 21.7227 38.9707 21.4688 38.7559C21.2188 38.541 20.9023 38.4336 20.5195 38.4336C20.125 38.4336 19.8164 38.5195 19.5938 38.6914C19.3711 38.8633 19.2598 39.0879 19.2598 39.3652C19.2598 39.627 19.3633 39.8242 19.5703 39.957C19.7773 40.0898 20.1504 40.2168 20.6895 40.3379C21.2324 40.459 21.6719 40.6035 22.0078 40.7715C22.3438 40.9395 22.5918 41.1426 22.752 41.3809C22.916 41.6152 22.998 41.9023 22.998 42.2422C22.998 42.8086 22.7715 43.2637 22.3184 43.6074C21.8652 43.9473 21.2773 44.1172 20.5547 44.1172C20.0469 44.1172 19.5977 44.0273 19.207 43.8477C18.8164 43.668 18.5098 43.418 18.2871 43.0977C18.0684 42.7734 17.959 42.4238 17.959 42.0488H19.043C19.0625 42.4121 19.207 42.7012 19.4766 42.916C19.75 43.127 20.1094 43.2324 20.5547 43.2324C20.9648 43.2324 21.293 43.1504 21.5391 42.9863C21.7891 42.8184 21.9141 42.5957 21.9141 42.3184ZM25.8809 36.125V37.6602H27.0645V38.498H25.8809V42.4297C25.8809 42.6836 25.9336 42.875 26.0391 43.0039C26.1445 43.1289 26.3242 43.1914 26.5781 43.1914C26.7031 43.1914 26.875 43.168 27.0938 43.1211V44C26.8086 44.0781 26.5312 44.1172 26.2617 44.1172C25.7773 44.1172 25.4121 43.9707 25.166 43.6777C24.9199 43.3848 24.7969 42.9688 24.7969 42.4297V38.498H23.6426V37.6602H24.7969V36.125H25.8809ZM30.9668 44.1172C30.1074 44.1172 29.4082 43.8359 28.8691 43.2734C28.3301 42.707 28.0605 41.9512 28.0605 41.0059V40.8066C28.0605 40.1777 28.1797 39.6172 28.418 39.125C28.6602 38.6289 28.9961 38.2422 29.4258 37.9648C29.8594 37.6836 30.3281 37.543 30.832 37.543C31.6562 37.543 32.2969 37.8145 32.7539 38.3574C33.2109 38.9004 33.4395 39.6777 33.4395 40.6895V41.1406H29.1445C29.1602 41.7656 29.3418 42.2715 29.6895 42.6582C30.041 43.041 30.4863 43.2324 31.0254 43.2324C31.4082 43.2324 31.7324 43.1543 31.998 42.998C32.2637 42.8418 32.4961 42.6348 32.6953 42.377L33.3574 42.8926C32.8262 43.709 32.0293 44.1172 30.9668 44.1172ZM30.832 38.4336C30.3945 38.4336 30.0273 38.5938 29.7305 38.9141C29.4336 39.2305 29.25 39.6758 29.1797 40.25H32.3555V40.168C32.3242 39.6172 32.1758 39.1914 31.9102 38.8906C31.6445 38.5859 31.2852 38.4336 30.832 38.4336ZM34.4355 40.7773C34.4355 39.8047 34.666 39.0234 35.127 38.4336C35.5879 37.8398 36.1914 37.543 36.9375 37.543C37.6797 37.543 38.2676 37.7969 38.7012 38.3047V35H39.7852V44H38.7891L38.7363 43.3203C38.3027 43.8516 37.6992 44.1172 36.9258 44.1172C36.1914 44.1172 35.5918 43.8164 35.127 43.2148C34.666 42.6133 34.4355 41.8281 34.4355 40.8594V40.7773ZM35.5195 40.9004C35.5195 41.6191 35.668 42.1816 35.9648 42.5879C36.2617 42.9941 36.6719 43.1973 37.1953 43.1973C37.8828 43.1973 38.3848 42.8887 38.7012 42.2715V39.3594C38.377 38.7617 37.8789 38.4629 37.207 38.4629C36.6758 38.4629 36.2617 38.668 35.9648 39.0781C35.668 39.4883 35.5195 40.0957 35.5195 40.9004ZM46.9922 43.2324C47.3789 43.2324 47.7168 43.1152 48.0059 42.8809C48.2949 42.6465 48.4551 42.3535 48.4863 42.002H49.5117C49.4922 42.3652 49.3672 42.7109 49.1367 43.0391C48.9062 43.3672 48.5977 43.6289 48.2109 43.8242C47.8281 44.0195 47.4219 44.1172 46.9922 44.1172C46.1289 44.1172 45.4414 43.8301 44.9297 43.2559C44.4219 42.6777 44.168 41.8887 44.168 40.8887V40.707C44.168 40.0898 44.2812 39.541 44.5078 39.0605C44.7344 38.5801 45.0586 38.207 45.4805 37.9414C45.9062 37.6758 46.4082 37.543 46.9863 37.543C47.6973 37.543 48.2871 37.7559 48.7559 38.1816C49.2285 38.6074 49.4805 39.1602 49.5117 39.8398H48.4863C48.4551 39.4297 48.2988 39.0938 48.0176 38.832C47.7402 38.5664 47.3965 38.4336 46.9863 38.4336C46.4355 38.4336 46.0078 38.6328 45.7031 39.0312C45.4023 39.4258 45.252 39.998 45.252 40.748V40.9531C45.252 41.6836 45.4023 42.2461 45.7031 42.6406C46.0039 43.0352 46.4336 43.2324 46.9922 43.2324ZM51.9082 44H50.8242V35H51.9082V44ZM54.8262 44H53.7422V37.6602H54.8262V44ZM53.6543 35.9785C53.6543 35.8027 53.707 35.6543 53.8125 35.5332C53.9219 35.4121 54.082 35.3516 54.293 35.3516C54.5039 35.3516 54.6641 35.4121 54.7734 35.5332C54.8828 35.6543 54.9375 35.8027 54.9375 35.9785C54.9375 36.1543 54.8828 36.3008 54.7734 36.418C54.6641 36.5352 54.5039 36.5938 54.293 36.5938C54.082 36.5938 53.9219 36.5352 53.8125 36.418C53.707 36.3008 53.6543 36.1543 53.6543 35.9785ZM59.1973 44.1172C58.3379 44.1172 57.6387 43.8359 57.0996 43.2734C56.5605 42.707 56.291 41.9512 56.291 41.0059V40.8066C56.291 40.1777 56.4102 39.6172 56.6484 39.125C56.8906 38.6289 57.2266 38.2422 57.6562 37.9648C58.0898 37.6836 58.5586 37.543 59.0625 37.543C59.8867 37.543 60.5273 37.8145 60.9844 38.3574C61.4414 38.9004 61.6699 39.6777 61.6699 40.6895V41.1406H57.375C57.3906 41.7656 57.5723 42.2715 57.9199 42.6582C58.2715 43.041 58.7168 43.2324 59.2559 43.2324C59.6387 43.2324 59.9629 43.1543 60.2285 42.998C60.4941 42.8418 60.7266 42.6348 60.9258 42.377L61.5879 42.8926C61.0566 43.709 60.2598 44.1172 59.1973 44.1172ZM59.0625 38.4336C58.625 38.4336 58.2578 38.5938 57.9609 38.9141C57.6641 39.2305 57.4805 39.6758 57.4102 40.25H60.5859V40.168C60.5547 39.6172 60.4062 39.1914 60.1406 38.8906C59.875 38.5859 59.5156 38.4336 59.0625 38.4336ZM63.9551 37.6602L63.9902 38.457C64.4746 37.8477 65.1074 37.543 65.8887 37.543C67.2285 37.543 67.9043 38.2988 67.916 39.8105V44H66.832V39.8047C66.8281 39.3477 66.7227 39.0098 66.5156 38.791C66.3125 38.5723 65.9941 38.4629 65.5605 38.4629C65.209 38.4629 64.9004 38.5566 64.6348 38.7441C64.3691 38.9316 64.1621 39.1777 64.0137 39.4824V44H62.9297V37.6602H63.9551ZM71.0215 36.125V37.6602H72.2051V38.498H71.0215V42.4297C71.0215 42.6836 71.0742 42.875 71.1797 43.0039C71.2852 43.1289 71.4648 43.1914 71.7188 43.1914C71.8438 43.1914 72.0156 43.168 72.2344 43.1211V44C71.9492 44.0781 71.6719 44.1172 71.4023 44.1172C70.918 44.1172 70.5527 43.9707 70.3066 43.6777C70.0605 43.3848 69.9375 42.9688 69.9375 42.4297V38.498H68.7832V37.6602H69.9375V36.125H71.0215ZM77.168 42.3184C77.168 42.0254 77.0566 41.7988 76.834 41.6387C76.6152 41.4746 76.2305 41.334 75.6797 41.2168C75.1328 41.0996 74.6973 40.959 74.373 40.7949C74.0527 40.6309 73.8145 40.4355 73.6582 40.209C73.5059 39.9824 73.4297 39.7129 73.4297 39.4004C73.4297 38.8809 73.6484 38.4414 74.0859 38.082C74.5273 37.7227 75.0898 37.543 75.7734 37.543C76.4922 37.543 77.0742 37.7285 77.5195 38.0996C77.9688 38.4707 78.1934 38.9453 78.1934 39.5234H77.1035C77.1035 39.2266 76.9766 38.9707 76.7227 38.7559C76.4727 38.541 76.1562 38.4336 75.7734 38.4336C75.3789 38.4336 75.0703 38.5195 74.8477 38.6914C74.625 38.8633 74.5137 39.0879 74.5137 39.3652C74.5137 39.627 74.6172 39.8242 74.8242 39.957C75.0312 40.0898 75.4043 40.2168 75.9434 40.3379C76.4863 40.459 76.9258 40.6035 77.2617 40.7715C77.5977 40.9395 77.8457 41.1426 78.0059 41.3809C78.1699 41.6152 78.252 41.9023 78.252 42.2422C78.252 42.8086 78.0254 43.2637 77.5723 43.6074C77.1191 43.9473 76.5312 44.1172 75.8086 44.1172C75.3008 44.1172 74.8516 44.0273 74.4609 43.8477C74.0703 43.668 73.7637 43.418 73.541 43.0977C73.3223 42.7734 73.2129 42.4238 73.2129 42.0488H74.2969C74.3164 42.4121 74.4609 42.7012 74.7305 42.916C75.0039 43.127 75.3633 43.2324 75.8086 43.2324C76.2188 43.2324 76.5469 43.1504 76.793 42.9863C77.043 42.8184 77.168 42.5957 77.168 42.3184Z" fill="#230B59"/>
<path d="M11.8916 14.5532H14.5547V16.5439H11.8916V21H9.43945V16.5439H0.69873V15.1069L9.29443 1.80469H11.8916V14.5532ZM3.46729 14.5532H9.43945V5.14014L9.14941 5.66748L3.46729 14.5532ZM18.8265 11.376L19.802 1.80469H29.637V4.05908H21.8719L21.2918 9.29297C22.2322 8.73926 23.3001 8.4624 24.4954 8.4624C26.2444 8.4624 27.6331 9.04248 28.6614 10.2026C29.6897 11.354 30.2039 12.9141 30.2039 14.8828C30.2039 16.8604 29.6678 18.4204 28.5955 19.563C27.532 20.6968 26.0423 21.2637 24.1263 21.2637C22.43 21.2637 21.0457 20.7935 19.9734 19.853C18.9012 18.9126 18.2903 17.6118 18.1409 15.9507H20.448C20.5974 17.0493 20.9886 17.8799 21.6214 18.4424C22.2542 18.9961 23.0891 19.2729 24.1263 19.2729C25.26 19.2729 26.1477 18.8862 26.7893 18.1128C27.4397 17.3394 27.7649 16.2715 27.7649 14.9092C27.7649 13.626 27.4134 12.5977 26.7102 11.8242C26.0159 11.042 25.0887 10.6509 23.9285 10.6509C22.865 10.6509 22.0301 10.8838 21.4236 11.3496L20.7776 11.877L18.8265 11.376ZM45.8531 12.813C45.8531 15.6694 45.3653 17.792 44.3897 19.1807C43.4141 20.5693 41.8892 21.2637 39.815 21.2637C37.7672 21.2637 36.251 20.5869 35.2667 19.2334C34.2823 17.8711 33.7725 15.8408 33.7374 13.1426V9.88623C33.7374 7.06494 34.2252 4.96875 35.2008 3.59766C36.1763 2.22656 37.7056 1.54102 39.7886 1.54102C41.8541 1.54102 43.3746 2.20459 44.3502 3.53174C45.3258 4.8501 45.8267 6.88916 45.8531 9.64893V12.813ZM43.4141 9.47754C43.4141 7.41211 43.1241 5.90918 42.544 4.96875C41.9639 4.01953 41.0455 3.54492 39.7886 3.54492C38.5406 3.54492 37.6309 4.01514 37.0596 4.95557C36.4884 5.896 36.1939 7.3418 36.1763 9.29297V13.1953C36.1763 15.2695 36.4752 16.8032 37.0728 17.7964C37.6793 18.7808 38.5933 19.2729 39.815 19.2729C41.0191 19.2729 41.9112 18.8071 42.4913 17.8755C43.0802 16.9438 43.3878 15.4761 43.4141 13.4722V9.47754ZM55.4379 12.0747L53.0912 14.5137V21H50.5599V1.80469H53.0912V11.2969L61.621 1.80469H64.6796L57.1254 10.2817L65.2728 21H62.2406L55.4379 12.0747ZM75.0421 10.7036H80.3947V13.0107H75.0421V19.0752H72.59V13.0107H67.2374V10.7036H72.59V5.10059H75.0421V10.7036Z" fill="#230B59"/>
</svg>
